<!--?xml version="1.0" standalone="no"?-->
              <svg id="sw-js-blob-svg" viewBox="0 0 100 100" xmlns="http://www.w3.org/2000/svg" version="1.1">
                    <defs> 
                        <linearGradient id="sw-gradient" x1="0" x2="1" y1="1" y2="0">
                            <stop id="stop1" stop-color="rgba(41, 44, 60, 1)" offset="0%"></stop>
                            <stop id="stop2" stop-color="rgba(79, 82, 112, 1)" offset="100%"></stop>
                        </linearGradient>
                    </defs>
                <path fill="#157C27" d="M22.3,-29C27.7,-22.2,29.8,-13.9,32,-5.1C34.2,3.7,36.4,13,33.9,21.6C31.3,30.2,24,38.1,15.3,40.7C6.6,43.2,-3.5,40.4,-11.6,35.8C-19.7,31.2,-25.8,24.8,-31.7,17.1C-37.6,9.4,-43.3,0.4,-41.5,-6.8C-39.6,-14,-30.2,-19.4,-22,-25.7C-13.8,-32.1,-6.9,-39.5,0.8,-40.4C8.5,-41.4,17,-35.9,22.3,-29Z" width="100%" height="100%" transform="translate(50 50)" stroke-width="0" style="transition: all 0.3s ease 0s;" stroke="url(#sw-gradient)"></path>
              </svg>