<!--?xml version="1.0" standalone="no"?-->
              <svg id="sw-js-blob-svg" viewBox="0 0 100 100" xmlns="http://www.w3.org/2000/svg" version="1.1">
                    <defs> 
                        <linearGradient id="sw-gradient" x1="0" x2="1" y1="1" y2="0">
                            <stop id="stop1" stop-color="rgba(159, 158, 161, 1)" offset="0%"></stop>
                            <stop id="stop2" stop-color="rgba(79, 82, 112, 1)" offset="100%"></stop>
                        </linearGradient>
                    </defs>
                <path fill="url(#sw-gradient)" d="M14.1,-23.1C18.1,-19.3,21.3,-15.2,23.1,-10.7C24.9,-6.2,25.4,-1.2,25.7,4.4C26,10,26.1,16.4,23.7,22.2C21.3,28.1,16.4,33.6,10.1,36.3C3.8,39.1,-3.9,39.2,-8.7,35.2C-13.5,31.2,-15.5,23.2,-17.8,17.2C-20.1,11.3,-22.7,7.5,-26.9,1.7C-31.2,-4.1,-37,-11.8,-37.1,-19.1C-37.2,-26.4,-31.5,-33.3,-24.3,-35.7C-17.2,-38.2,-8.6,-36.3,-1.8,-33.5C5,-30.7,10,-27,14.1,-23.1Z" width="100%" height="100%" transform="translate(50 50)" stroke-width="0" style="transition: all 0.3s ease 0s;" stroke="url(#sw-gradient)"></path>
              </svg>