<?xml version="1.0" encoding="UTF-8"?>
<svg xmlns="http://www.w3.org/2000/svg" version="1.1" viewBox="0 0 2500 2500">
  <defs>
    <style>
      .cls-1 {
        fill: #fff;
        fill-rule: evenodd;
      }
    </style>
  </defs>
  <!-- Generator: Adobe Illustrator 28.7.0, SVG Export Plug-In . SVG Version: 1.2.0 Build 136)  -->
  <g>
    <g id="Layer_1">
      <g>
        <path class="cls-1" d="M354.1,1345.6c-190.3,0-317.4-134.9-317.4-298.3s127.4-299.8,317.1-299.4h1792.3c189.7-.4,317.1,135.9,317.1,299.4s-127.1,298.3-317.4,298.3H354.1Z"/>
        <path class="cls-1" d="M354.7,821.4c-150.6.3-243.1,100.9-243.1,225.5s91.9,226,243.1,225.4h1790.5c151.2.6,243.1-100.9,243.1-225.4s-92.5-225.2-243.1-225.5H354.7Z"/>
        <path class="cls-1" d="M277.5,905.5h87.6l121.3,196.2v-196.2c0,0,86.9,0,86.9,0v281.4h-86.8l-121.9-196.2v196.2h-87.1v-281.4ZM1046.3,934.5h84.7v37.9h45.8v27.8h-45.8v186.8c0,0-84.7,0-84.7,0v-186.8s-46,0-46,0v-27.8h46v-37.9ZM621.8,999.8h84.6v187.1h-84.6v-187.1ZM621.6,905.5h84.8v57.5h-84.8v-57.5ZM2138.7,1091.9s0,28.2,0,39.6c0,29.8-17.6,42.2-34.6,42.2s-34.7-12.3-34.7-42.2,0-40.3,0-40.3c0,0,0-27.7,0-39,0-29.7,17.7-41.9,34.5-41.9s34.6,12.2,34.6,41.9,0,32.3,0,39.9h0q0-.1,0-.1ZM2104.7,987c-68.3,0-123.6,47.1-123.6,105.1s55.4,105.1,123.6,105.1,123.7-47,123.7-105.1-55.3-105.1-123.7-105.1h0ZM1870,905.5h83.5v281.4h-83.6v-10.8c-32.4,20.3-69,20.3-97.5,7-7.6-3.6-57.9-27.7-57.9-92.8s46.6-103.4,107.6-98c20.1,1.8,34.3,9.1,47.9,16.7v-103.5ZM1870.6,1092.4v-33.4c0-28.9-20-36.3-33.1-36.3s-33.2,7.4-33.2,36.3,0,33.4,0,33.4c0,0,0,23.3,0,33.3,0,28.9,19.7,36.5,33.2,36.5s33.1-7.5,33.1-36.5v-33.2ZM904.5,991.2c31.6-.9,95.8,19.8,95.4,94,0,13.1,0,101.8,0,101.8h-84.1v-122.9c0-16.3-15.6-34.5-38.6-34.5s-40.2,18.1-40.2,34.5v122.9c0,0-83.9,0-83.9,0v-187.1c0,0,84,0,84,0,0,0,0,15.1,0,19.7,18.2-17.4,42.3-27.5,67.5-28.2h0ZM1592.3,991.2c31.6-.9,95.8,19.8,95.4,94-.1,13.1,0,101.8,0,101.8h-84.1v-122.9c0-16.3-15.6-34.5-38.6-34.5s-40.2,18.1-40.2,34.5v122.9c.1,0-83.9,0-83.9,0v-187.1c0,0,84,0,84,0,0,0-.1,15.1,0,19.7,18.2-17.4,42.3-27.5,67.5-28.2h0ZM1255.7,1065c-.2-16.4.2-27.3,5.6-36.7,6.7-11.5,18.8-17,29.8-17.1h0c11.1,0,23.2,5.5,29.8,17.1,5.4,9.4,5.7,20.4,5.6,36.7h-70.6ZM1325.9,1121.5s0,.8,0,11.4c0,34.2-22.5,41.9-35,41.9s-35.4-7.6-35.4-41.9.1-38.6.1-38.6c0,0,159.4,0,159.4,0,0-58.1-56-106.1-124.8-106.1s-124.6,47.1-124.6,105,55.8,105.1,124.6,105.1,105.3-32.6,120.1-76.8h-84.4c0,0,0,0,0,0ZM2234.3,972.5h-9.8v-64.1h24.4c15.1,0,22.6,5.6,22.6,18.2s-7.2,16.4-16.6,17.7l18.2,28.2h-10.8l-16.9-27.8h-11.1v27.8h0ZM2245.9,936.4c8.2,0,15.5-.6,15.5-10.4s-7.2-9.4-13.9-9.4h-13.2v19.8h11.6Z"/>
        <path class="cls-1" d="M2189.5,940.3c0-31.9,25.9-55.4,56.4-55.4s56.1,23.5,56.1,55.4-25.8,55.7-56.1,55.7-56.4-23.5-56.4-55.7ZM2246,986.7c25.1,0,44.9-19.7,44.9-46.4s-19.8-46.1-44.9-46.1-45.2,19.9-45.2,46.1,19.8,46.4,45.2,46.4Z"/>
      </g>
    </g>
  </g>
</svg>