<?xml version="1.0" encoding="UTF-8"?>
<svg id="Layer_2" xmlns="http://www.w3.org/2000/svg" viewBox="0 0 2426.47 597.75">
  <defs>
    <style>
      .cls-1 {
        fill: #fff;
        fill-rule: evenodd;
      }
    </style>
  </defs>
  <g id="Layer_1-2" data-name="Layer_1">
    <g>
      <path class="cls-1" d="M317.37,597.75C127.12,597.7,0,462.89,0,299.42S127.44-.43,317.1,0h1792.28c189.66-.43,317.1,135.94,317.1,299.42s-127.14,298.28-317.41,298.33H317.37Z"/>
      <path class="cls-1" d="M317.97,73.55c-150.62.26-243.09,100.94-243.09,225.47s91.88,225.99,243.09,225.43h1790.5c151.2.56,243.13-100.92,243.13-225.43s-92.49-225.19-243.13-225.47H317.97Z"/>
      <path class="cls-1" d="M240.73,157.67h87.62l121.33,196.21-.06-196.21h86.96v281.42h-86.85l-121.94-196.22v196.22h-87.1l.04-281.42ZM1009.55,186.65h84.69v37.86h45.82v27.79h-45.82l.05,186.79h-84.74l.04-186.79h-45.99v-27.77h46.02l-.06-37.88ZM585.04,251.96h84.63v187.13h-84.63v-187.13ZM584.86,157.62h84.81v57.53h-84.81v-57.53ZM2101.92,344.02s-.05,28.25-.05,39.62c0,29.82-17.6,42.15-34.6,42.15s-34.66-12.33-34.66-42.15c0-11.37.05-40.32.05-40.32,0,0,.08-27.66.08-39.04,0-29.7,17.65-41.92,34.53-41.92s34.6,12.22,34.6,41.92c0,11.37,0,32.32.05,39.87v-.13h0ZM2067.93,239.18c-68.27,0-123.61,47.05-123.61,105.11s55.36,105.06,123.61,105.06,123.69-47.04,123.69-105.06-55.34-105.11-123.69-105.11h0ZM1833.21,157.67h83.51v281.37h-83.64l-.05-10.76c-32.35,20.31-68.95,20.26-97.43,7.02-7.63-3.57-57.88-27.69-57.88-92.76,0-49.44,46.64-103.36,107.58-98.01,20.09,1.79,34.34,9.1,47.9,16.69v-103.54ZM1833.82,344.58v-33.44c0-28.95-19.96-36.32-33.14-36.32s-33.22,7.37-33.22,36.32c0,9.55.05,33.36.05,33.36,0,0-.05,23.28-.05,33.25,0,28.92,19.71,36.47,33.22,36.47s33.14-7.55,33.14-36.47v-33.18ZM867.76,243.31c31.62-.87,95.85,19.84,95.38,93.95-.09,13.13-.03,101.79-.03,101.79h-84.07v-122.89c0-16.33-15.6-34.47-38.64-34.47s-40.19,18.14-40.19,34.47l.09,122.89h-84.03l-.06-187.11,84.08-.06s-.09,15.07,0,19.66c18.23-17.42,42.27-27.47,67.47-28.22h0ZM1555.5,243.31c31.57-.87,95.78,19.84,95.38,93.95-.13,13.13-.08,101.79-.08,101.79h-84.07v-122.89c0-16.33-15.58-34.47-38.64-34.47s-40.23,18.14-40.23,34.47l.13,122.89h-84.01l.05-187.11,83.95-.06s-.13,15.07,0,19.66c18.24-17.43,42.29-27.48,67.51-28.22h0ZM1218.91,317.18c-.16-16.37.18-27.31,5.55-36.73,6.67-11.52,18.82-17,29.82-17.06h-.05c11.08.05,23.15,5.54,29.77,17.06,5.37,9.4,5.68,20.36,5.55,36.73h-70.63ZM1289.18,373.62s.08.83.08,11.37c0,34.23-22.52,41.85-34.98,41.85s-35.43-7.63-35.43-41.85c0-10.29.13-38.65.13-38.65,0,0,159.36.05,159.36,0,0-58.05-56-106.13-124.83-106.13s-124.6,47.05-124.6,105.04,55.81,105.12,124.6,105.12c57.09,0,105.3-32.61,120.07-76.83l-84.39.08h0ZM2197.51,224.64h-9.75v-64.08h24.45c15.1,0,22.62,5.59,22.62,18.21,0,11.45-7.2,16.45-16.64,17.65l18.21,28.22h-10.84l-16.93-27.79h-11.12v27.79h0ZM2209.1,188.61c8.24,0,15.52-.57,15.52-10.43,0-7.92-7.2-9.42-13.9-9.42h-13.23v19.84h11.61Z"/>
      <path class="cls-1" d="M2152.79,192.42c0-31.88,25.89-55.39,56.44-55.39s56.11,23.53,56.11,55.39-25.81,55.71-56.11,55.71-56.44-23.49-56.44-55.71ZM2209.23,238.87c25.15,0,44.94-19.69,44.94-46.44s-19.78-46.15-44.94-46.15-45.24,19.87-45.24,46.15,19.83,46.44,45.24,46.44Z"/>
    </g>
  </g>
</svg>